# xmcd CD database file generated by Grip 3.3.1
# 
# Track frame offsets:
#       150
#       18075
#       35175
#       54525
#       76575
#       92625
#       114300
#       138600
#       152625
#       168675
#       181650
#       204000
# 
# Disc length: 3109 seconds
# 
# Revision: 3
# Processed by: cddbd v1.5.2PL0 Copyright (c) Steve Scherf et al.
# Submitted via: Grip 3.3.1
# 
DISCID=8c0c230c
DTITLE=Big Jay Mc Neely and The Bad Boys - Deacon's Hop Since 1949
DYEAR=1999
DGENRE=Blues
TTITLE0=Partytime
TTITLE1=Deacon's Hop
TTITLE2=To Mom
TTITLE3=Zydeco
TTITLE4=3 D
TTITLE5=Big Fat Mama
TTITLE6=Living Just for You
TTITLE7=Get All Up and Boogie
TTITLE8=Big Jay Shuffle
TTITLE9=Waterdrops
TTITLE10=Tuff
TTITLE11=Young Girl Blues (live)
EXTD=YEAR: 1999
EXTT0=
EXTT1=
EXTT2=
EXTT3=
EXTT4=
EXTT5=
EXTT6=
EXTT7=
EXTT8=
EXTT9=
EXTT10=
EXTT11=
PLAYORDER=
